<svg xmlns="http://www.w3.org/2000/svg" xmlns:xlink="http://www.w3.org/1999/xlink" width="28" height="15" viewBox="0 0 28 15"><defs><path id="8yg8a" d="M521.39 406.32l-2.8 2.77a1.95 1.95 0 0 0 0 2.78l2.8 2.78c.77.76 2.02.76 2.79 0l2.8-2.78c.76-.77.76-2 0-2.78l-2.8-2.77a1.98 1.98 0 0 0-2.8 0z"/><path id="8yg8b" d="M529.25 404.93l-4.2 4.16a1.95 1.95 0 0 0 0 2.78l4.2 4.17c.77.76 2.02.76 2.8 0l4.18-4.17c.77-.77.77-2 0-2.78l-4.19-4.16a1.98 1.98 0 0 0-2.8 0z"/><path id="8yg8c" d="M537.07 403.54l-5.58 5.55a1.95 1.95 0 0 0 0 2.78l5.58 5.55c.77.77 2.03.77 2.8 0l5.58-5.55c.77-.77.77-2 0-2.78l-5.58-5.55a1.98 1.98 0 0 0-2.8 0z"/></defs><g><g transform="translate(-518 -403)"><g opacity=".4"><use fill="#00a99d" xlink:href="#8yg8a"/></g><g opacity=".7"><use fill="#00a99d" xlink:href="#8yg8b"/></g><g><use fill="#00a99d" xlink:href="#8yg8c"/></g></g></g></svg>