<svg xmlns="http://www.w3.org/2000/svg" xmlns:xlink="http://www.w3.org/1999/xlink" width="622" height="15" viewBox="0 0 622 15"><defs><path id="hxy1a" d="M377 413h131v1H377zm622 0v1H867v-1zm-622-5h131v1H377zm622 0v1H867v-1z"/><path id="hxy1c" d="M853.64 406.34l2.8 2.77c.77.77.77 2 0 2.77l-2.8 2.77c-.77.77-2.02.77-2.79 0l-2.8-2.77c-.76-.76-.76-2 0-2.77l2.8-2.77a1.99 1.99 0 0 1 2.8 0z"/><path id="hxy1d" d="M845.78 404.96l4.2 4.15c.76.77.76 2 0 2.77l-4.2 4.16c-.77.77-2.02.77-2.8 0l-4.18-4.16c-.77-.76-.77-2 0-2.77l4.19-4.15a1.99 1.99 0 0 1 2.8 0z"/><path id="hxy1e" d="M837.96 403.57l5.58 5.54c.77.77.77 2 0 2.77l-5.58 5.55c-.77.76-2.02.76-2.8 0l-5.58-5.55c-.77-.76-.77-2 0-2.77l5.58-5.54a1.99 1.99 0 0 1 2.8 0z"/><path id="hxy1f" d="M521.39 406.32l-2.8 2.77a1.95 1.95 0 0 0 0 2.78l2.8 2.78c.77.76 2.02.76 2.79 0l2.8-2.78c.76-.77.76-2 0-2.78l-2.8-2.77a1.98 1.98 0 0 0-2.8 0z"/><path id="hxy1g" d="M529.25 404.93l-4.2 4.16a1.95 1.95 0 0 0 0 2.78l4.2 4.17c.77.76 2.02.76 2.8 0l4.18-4.17c.77-.77.77-2 0-2.78l-4.19-4.16a1.98 1.98 0 0 0-2.8 0z"/><path id="hxy1h" d="M537.07 403.54l-5.58 5.55a1.95 1.95 0 0 0 0 2.78l5.58 5.55c.77.77 2.03.77 2.8 0l5.58-5.55c.77-.77.77-2 0-2.78l-5.58-5.55a1.98 1.98 0 0 0-2.8 0z"/><linearGradient id="hxy1b" x1="377" x2="999" y1="411" y2="411" gradientUnits="userSpaceOnUse"><stop offset="0" stop-color="#f9f9f9"/><stop offset=".2" stop-color="#f1f1f1" stop-opacity="0"/><stop offset=".5" stop-color="#e4e4e4" stop-opacity="0"/><stop offset=".8" stop-color="#f1f1f1" stop-opacity="0"/><stop offset="1" stop-color="#f9f9f9"/></linearGradient></defs><g><g transform="translate(-377 -403)"><use fill="#dedede" xlink:href="#hxy1a"/><use fill="url(#hxy1b)" xlink:href="#hxy1a"/></g><g transform="translate(-377 -403)"><g opacity=".4"><use fill="#00a99d" xlink:href="#hxy1c"/></g><g opacity=".7"><use fill="#00a99d" xlink:href="#hxy1d"/></g><g><use fill="#00a99d" xlink:href="#hxy1e"/></g></g><g transform="translate(-377 -403)"><g opacity=".4"><use fill="#00a99d" xlink:href="#hxy1f"/></g><g opacity=".7"><use fill="#00a99d" xlink:href="#hxy1g"/></g><g><use fill="#00a99d" xlink:href="#hxy1h"/></g></g></g></svg>