<svg xmlns="http://www.w3.org/2000/svg" xmlns:xlink="http://www.w3.org/1999/xlink" width="28" height="15" viewBox="0 0 28 15"><defs><path id="g6m5a" d="M853.64 406.34l2.8 2.77c.77.77.77 2 0 2.77l-2.8 2.77c-.77.77-2.02.77-2.79 0l-2.8-2.77c-.76-.76-.76-2 0-2.77l2.8-2.77a1.99 1.99 0 0 1 2.8 0z"/><path id="g6m5b" d="M845.78 404.96l4.2 4.15c.76.77.76 2 0 2.77l-4.2 4.16c-.77.77-2.02.77-2.8 0l-4.18-4.16c-.77-.76-.77-2 0-2.77l4.19-4.15a1.99 1.99 0 0 1 2.8 0z"/><path id="g6m5c" d="M837.96 403.57l5.58 5.54c.77.77.77 2 0 2.77l-5.58 5.55c-.77.76-2.02.76-2.8 0l-5.58-5.55c-.77-.76-.77-2 0-2.77l5.58-5.54a1.99 1.99 0 0 1 2.8 0z"/></defs><g><g transform="translate(-829 -403)"><g opacity=".4"><use fill="#00a99d" xlink:href="#g6m5a"/></g><g opacity=".7"><use fill="#00a99d" xlink:href="#g6m5b"/></g><g><use fill="#00a99d" xlink:href="#g6m5c"/></g></g></g></svg>