<svg xmlns="http://www.w3.org/2000/svg" xmlns:xlink="http://www.w3.org/1999/xlink" width="64" height="64" viewBox="0 0 64 64"><defs><path id="cr5ha" d="M152.55 5055.74a36.97 36.97 0 0 1 .46-52.4c.06-.07.11-.12.18-.17l10.42 10.55-.18.17a22.18 22.18 0 0 0-.27 31.44 22.35 22.35 0 0 0 31.54.22l.17-.17 10.42 10.55c-.05.07-.11.12-.17.18a37.26 37.26 0 0 1-52.57-.37zm42.32-10.36l10.42 10.55"/><linearGradient id="cr5hb" x1="141.89" x2="204.89" y1="5002.78" y2="5067.17" gradientUnits="userSpaceOnUse"><stop offset="0" stop-color="#e532d6"/><stop offset="1" stop-color="#10d5db"/></linearGradient></defs><g><g transform="translate(-142 -5003)"><use fill="url(#cr5hb)" xlink:href="#cr5ha"/></g></g></svg>