<svg xmlns="http://www.w3.org/2000/svg" xmlns:xlink="http://www.w3.org/1999/xlink" width="917" height="633" viewBox="0 0 917 633"><defs><path id="qkdoa" d="M260 5047h440v493.01H260z"/><path id="qkdob" d="M700 5047h440v493.01H700z"/><path id="qkdoc" d="M310 4995h780v595H310z"/><mask id="qkdoe" width="2" height="2" x="-1" y="-1"><path fill="#fff" d="M260 5047h440v494H260z"/><use xlink:href="#qkdoa"/></mask><filter id="qkdod" width="508" height="562" x="226" y="5013" filterUnits="userSpaceOnUse"><feOffset in="SourceGraphic" result="FeOffset1489Out"/><feGaussianBlur in="FeOffset1489Out" result="FeGaussianBlur1490Out" stdDeviation="9.6 9.6"/></filter><mask id="qkdog" width="2" height="2" x="-1" y="-1"><path fill="#fff" d="M700 5047h440v494H700z"/><use xlink:href="#qkdob"/></mask><filter id="qkdof" width="508" height="562" x="666" y="5013" filterUnits="userSpaceOnUse"><feOffset in="SourceGraphic" result="FeOffset1505Out"/><feGaussianBlur in="FeOffset1505Out" result="FeGaussianBlur1506Out" stdDeviation="9.6 9.6"/></filter><mask id="qkdoi" width="2" height="2" x="-1" y="-1"><path fill="#fff" d="M310 4995h780v595H310z"/><use xlink:href="#qkdoc"/></mask><filter id="qkdoh" width="848" height="663" x="276" y="4961" filterUnits="userSpaceOnUse"><feOffset in="SourceGraphic" result="FeOffset1521Out"/><feGaussianBlur in="FeOffset1521Out" result="FeGaussianBlur1522Out" stdDeviation="9.6 9.6"/></filter></defs><g><g transform="translate(-242 -4976)"><g filter="url(#qkdod)"><use fill="none" stroke-opacity=".22" stroke-width="0" mask="url(&quot;#qkdoe&quot;)" xlink:href="#qkdoa"/><use fill-opacity=".22" xlink:href="#qkdoa"/></g><use fill="#fff" xlink:href="#qkdoa"/></g><g transform="translate(-242 -4976)"><g filter="url(#qkdof)"><use fill="none" stroke-opacity=".22" stroke-width="0" mask="url(&quot;#qkdog&quot;)" xlink:href="#qkdob"/><use fill-opacity=".22" xlink:href="#qkdob"/></g><use fill="#fff" xlink:href="#qkdob"/></g><g transform="translate(-242 -4976)"><g filter="url(#qkdoh)"><use fill="none" stroke-opacity=".22" stroke-width="0" mask="url(&quot;#qkdoi&quot;)" xlink:href="#qkdoc"/><use fill-opacity=".22" xlink:href="#qkdoc"/></g><use fill="#fff" xlink:href="#qkdoc"/></g></g></svg>