<?xml version="1.0" encoding="iso-8859-1"?>
<!-- Generator: Adobe Illustrator 19.0.0, SVG Export Plug-In . SVG Version: 6.00 Build 0)  -->
<svg version="1.1" id="Capa_1" xmlns="http://www.w3.org/2000/svg" xmlns:xlink="http://www.w3.org/1999/xlink" x="0px" y="0px"
	 viewBox="0 0 512 512" style="enable-background:new 0 0 512 512;" xml:space="preserve">
<circle style="fill:#00CCBD;" cx="256" cy="267" r="245"/>
<path style="fill:#E52E49;" d="M136.216,323.61L97.713,453.987c11.91,10.093,24.801,19.058,38.502,26.752V323.61H136.216z"/>
<path style="fill:#C0272D;" d="M136.216,323.61L97.713,453.987c3.283,2.782,6.642,5.476,10.069,8.084l28.433-101.444V323.61H136.216
	z"/>
<path style="fill:#06064C;" d="M406.271,368.41h-36.542c-0.184,0-0.364-0.017-0.546-0.027v115.945c16.53-8.627,31.953-19.08,46-31.1
	v-93.73C415.184,364.398,411.173,368.41,406.271,368.41z"/>
<path style="fill:#EEF6FF;" d="M369.245,368.975c-4.165-0.257-7.429-3.721-7.429-7.887v-13.602c0-0.42-0.263-0.796-0.658-0.939
	c-0.112-0.041-0.227-0.061-0.342-0.061c-0.29,0-0.572,0.126-0.766,0.358l-1.465,1.746c-0.759,0.904-1.878,1.423-3.07,1.423
	c-0.939,0-1.85-0.33-2.565-0.93l-39.792-33.39l0,0l0,0l-12.672-10.634c-1.689-1.418-1.911-3.946-0.493-5.636l13.165-15.688v-1.134
	h-13.779v-16.6C287.012,273.605,272.472,278,256.921,278h-2.137c-15.426,0-29.862-4.318-42.164-11.81v16.411h-53.808
	c-13.038,0-23.705,10.666-23.705,23.705v173.825C170.779,500.409,212.034,512,256,512c41.236,0,80.086-10.196,114.184-28.193
	V369.973C370.184,369.444,369.772,369.007,369.245,368.975z"/>
<g>
	<path style="fill:#C3DDF4;" d="M225.241,289.328v-16.907c-4.402-1.724-8.629-3.8-12.621-6.23v15.852L225.241,289.328z"/>
	<path style="fill:#C3DDF4;" d="M248.5,321.909V400c0,4.143,3.358,7.5,7.5,7.5s7.5-3.357,7.5-7.5v-78.091H248.5z"/>
	<path style="fill:#C3DDF4;" d="M241.5,321.909c-2.206,0-4-1.794-4-4v-0.65c0-0.357-0.19-0.688-0.5-0.866
		c-0.155-0.089-0.327-0.134-0.5-0.134s-0.345,0.045-0.5,0.134l-9,5.196v33.389c0,4.143,3.358,7.5,7.5,7.5s7.5-3.357,7.5-7.5V321.91
		h-0.5V321.909z"/>
	<path style="fill:#C3DDF4;" d="M276,316.392c-0.155-0.089-0.327-0.134-0.5-0.134s-0.345,0.045-0.5,0.134
		c-0.31,0.179-0.5,0.509-0.5,0.866v0.651c0,2.206-1.794,4-4,4H270v33.068c0,4.143,3.358,7.5,7.5,7.5s7.5-3.357,7.5-7.5v-33.39
		L276,316.392z"/>
</g>
<path style="fill:#FFD3B6;" d="M173.471,165.428h-16.415c-4.443,2.467-7.458,7.193-7.458,12.635v25.591
	c0,7.988,6.476,14.463,14.465,14.463h12.295c-1.869-6.832-2.886-14.012-2.886-21.429L173.471,165.428L173.471,165.428z"/>
<path style="fill:#FFBB88;" d="M354.649,165.428h-16.415v31.26c0,7.417-1.018,14.597-2.886,21.429h12.296
	c7.989,0,14.464-6.475,14.464-14.463v-25.591C362.108,172.621,359.093,167.895,354.649,165.428z"/>
<path style="fill:#FFD3B6;" d="M172.471,165.428v31.26c0,45.46,36.853,82.313,82.313,82.313h2.137
	c45.46,0,82.313-36.852,82.313-82.313v-31.26L172.471,165.428L172.471,165.428z"/>
<path style="fill:#FFBB88;" d="M193.237,196.688v-31.26h-20.766v31.26c0,45.46,36.853,82.313,82.313,82.313h2.137
	c3.151,0,6.255-0.194,9.314-0.539C225.163,273.832,193.237,238.996,193.237,196.688z"/>
<g>
	<path style="fill:#183889;" d="M218.439,189.612c0,6.989-5.667,12.655-12.655,12.655l0,0c-6.99,0-12.655-5.666-12.655-12.655
		v-6.814c0-6.989,5.665-12.655,12.655-12.655l0,0c6.988,0,12.655,5.666,12.655,12.655V189.612z"/>
	<path style="fill:#183889;" d="M318.578,189.612c0,6.989-5.664,12.655-12.655,12.655l0,0c-6.99,0-12.654-5.666-12.654-12.655
		v-6.814c0-6.989,5.664-12.655,12.654-12.655l0,0c6.991,0,12.655,5.666,12.655,12.655V189.612z"/>
</g>
<path style="fill:#CC8250;" d="M256,255.29c-10.016,0-19.432-3.9-26.514-10.983c-2.929-2.929-2.929-7.678,0-10.606
	c2.929-2.928,7.678-2.929,10.606,0.001c4.249,4.249,9.898,6.589,15.908,6.589c6.009,0,11.659-2.34,15.908-6.589
	c2.929-2.93,7.678-2.929,10.607-0.001c2.929,2.929,2.929,7.678,0,10.606C275.432,251.39,266.016,255.29,256,255.29z"/>
<path style="fill:#06064C;" d="M338.053,0H173.947c-2.593,0-4.715,2.122-4.715,4.716V128h173.537V4.716
	C342.769,2.122,340.646,0,338.053,0z"/>
<path style="fill:#000011;" d="M190,4.716C190,2.122,192.122,0,194.715,0h-20.768c-2.593,0-4.715,2.122-4.715,4.716V128H190V4.716z"
	/>
<rect x="169.23" y="126.82" style="fill:#FFC610;" width="173.54" height="17.977"/>
<rect x="169.23" y="126.82" style="fill:#FFAF10;" width="20.768" height="17.977"/>
<path style="fill:#CC8250;" d="M264.376,221.085h-16.753c-5.789,0-10.5-4.71-10.5-10.5V183c0-4.143,3.358-7.5,7.5-7.5
	s7.5,3.357,7.5,7.5v23.085h7.808c0.451-3.711,3.612-6.585,7.445-6.585c4.142,0,7.5,3.357,7.5,7.5v3.585
	C274.876,216.375,270.166,221.085,264.376,221.085z"/>
<path style="fill:#06064C;" d="M370.184,369.973c0-0.528-0.411-0.966-0.939-0.998c-4.165-0.257-7.429-3.721-7.429-7.887v-13.602
	c0-0.42-0.263-0.796-0.658-0.939c-0.112-0.041-0.227-0.061-0.342-0.061c-0.29,0-0.572,0.126-0.766,0.358l-1.465,1.746
	c-0.759,0.904-1.878,1.423-3.07,1.423c-0.939,0-1.85-0.33-2.565-0.93l-48.458-40.662L256,470.001l-56.24-187.399h-40.948
	c-13.038,0-23.705,10.666-23.705,23.705v173.825C170.779,500.409,212.034,512,256,512c41.236,0,80.086-10.196,114.184-28.193
	V369.973z"/>
<g>
	<path style="fill:#000011;" d="M156,306.307c0-13.039,10.667-23.705,23.705-23.705h-20.893c-13.038,0-23.705,10.666-23.705,23.705
		v173.825c6.77,3.848,13.741,7.382,20.893,10.584V306.307z"/>
	<path style="fill:#000011;" d="M369.729,368.41c-0.184,0-0.364-0.017-0.546-0.027v115.251c5.11-2.707,10.112-5.589,15-8.638V368.41
		H369.729z"/>
</g>
<g>
	<path style="fill:#E52E49;" d="M300.485,305.06c-1.689-1.418-1.911-3.946-0.493-5.636l13.165-15.688v-5.917
		c0-2.75-1.949-3.875-4.33-2.5L274.5,295.137v21.544l34.328,19.819c2.381,1.375,4.33,0.25,4.33-2.5v-18.307L300.485,305.06z"/>
	<path style="fill:#E52E49;" d="M237.5,295.138l-34.328-19.819c-2.381-1.375-4.33-0.25-4.33,2.5V334c0,2.75,1.949,3.875,4.33,2.5
		l34.328-19.818V295.138z"/>
</g>
<path style="fill:#C0272D;" d="M209,278.684l-5.828-3.365c-2.381-1.375-4.33-0.25-4.33,2.5V334c0,2.75,1.949,3.875,4.33,2.5
	l5.828-3.364V278.684z"/>
<path style="fill:#B7092B;" d="M275.5,317.909c0,2.75-2.25,5-5,5h-29c-2.75,0-5-2.25-5-5v-24c0-2.75,2.25-5,5-5h29
	c2.75,0,5,2.25,5,5V317.909z"/>
<path style="fill:#960B15;" d="M247,317.909v-24c0-2.75,2.25-5,5-5h-10.5c-2.75,0-5,2.25-5,5v24c0,2.75,2.25,5,5,5H252
	C249.25,322.909,247,320.659,247,317.909z"/>
<path style="fill:#D9EAFC;" d="M361.816,331.707l-6.593,3.074c-0.53,0.247-1.094,0.372-1.676,0.372c-1.558,0-2.987-0.905-3.64-2.307
	l-28.313-60.72l-22.367,26.654c-1.768,2.106-1.49,5.276,0.616,7.044l52.465,44.023c2.107,1.768,5.276,1.49,7.044-0.616l2.465-2.938
	v-14.586H361.816z"/>
<path style="fill:#FFFFFF;" d="M361.816,331.707l-6.593,3.074c-0.53,0.247-1.094,0.372-1.676,0.372c-1.558,0-2.987-0.905-3.64-2.307
	l-24.653-52.871l-14.97,17.839c-1.768,2.106-1.49,5.276,0.616,7.044l40.44,33.934c2.107,1.768,5.276,1.49,7.044-0.616l3.433-4.091
	v-2.378H361.816z"/>
<path style="fill:#EEF6FF;" d="M361.816,308.502c0-1.656,0.514-3.193,1.387-4.465V247c0-0.566,0.122-1.105,0.335-1.594
	l-41.063,19.147c-2.493,1.162-3.581,4.152-2.418,6.645L349,333.27c1.162,2.492,4.152,3.58,6.645,2.418l6.171-2.877L361.816,308.502
	L361.816,308.502z"/>
<path style="fill:#FFFFFF;" d="M361.816,308.502c0-1.656,0.514-3.193,1.387-4.465v-49.145c-0.793-0.043-1.605,0.078-2.372,0.436
	l-27.926,13.022c-2.493,1.162-3.581,4.152-2.419,6.645l22.31,47.845c1.163,2.492,4.152,3.58,6.645,2.418l2.374-1.107v-15.649
	H361.816z"/>
<path style="fill:#D9EAFC;" d="M413.714,242h-46.511c-2.75,0-5,2.25-5,5v59.069c1.029-3.175,4.012-5.479,7.526-5.479h11.26
	l24.644-52.851c0.654-1.401,2.083-2.307,3.64-2.307c0.583,0,1.147,0.125,1.677,0.372l7.764,3.62V247
	C418.714,244.25,416.464,242,413.714,242z"/>
<path style="fill:#FFFFFF;" d="M380.989,300.59l23.661-50.741h-29.598c-2.75,0-5,2.25-5,5v45.741H380.989z"/>
<path style="fill:#EEF6FF;" d="M453.524,264.554l-42.152-19.655c-2.493-1.162-5.482-0.074-6.645,2.418l-24.841,53.273h16.151
	l44.439-37.287c0.715-0.6,1.626-0.93,2.565-0.93c1.192,0,2.312,0.519,3.07,1.423l8.539,10.176l1.293-2.773
	C457.105,268.706,456.017,265.716,453.524,264.554z"/>
<path style="fill:#FFFFFF;" d="M396.037,300.59l41.508-34.828l-22.377-10.434c-2.493-1.162-5.483-0.074-6.645,2.418l-19.978,42.844
	H396.037z"/>
<path style="fill:#D9EAFC;" d="M476.773,298.781l-29.896-35.628c-1.768-2.106-4.938-2.384-7.044-0.616l-45.351,38.053h11.789
	c4.363,0,7.913,3.55,7.913,7.912v37.793l2.465,2.938c1.768,2.107,4.938,2.384,7.044,0.616l52.465-44.023
	C478.264,304.058,478.541,300.888,476.773,298.781z"/>
<path style="fill:#FFFFFF;" d="M465.716,297.815l-19.807-23.604c-1.768-2.106-4.938-2.384-7.044-0.616l-32.196,27.016
	c4.177,0.209,7.515,3.663,7.515,7.892v25.583l3.433,4.091c1.768,2.106,4.938,2.384,7.044,0.616l40.44-33.934
	C467.206,303.091,467.484,299.921,465.716,297.815z"/>
<path style="fill:#FFBB88;" d="M360.816,308.502c0-4.902,4.011-8.912,8.913-8.912h36.542c4.902,0,8.913,4.01,8.913,8.912v52.586
	c0,4.9-4.011,8.912-8.913,8.912h-36.542c-4.902,0-8.913-4.012-8.913-8.912V308.502z"/>
<g>
	<path style="fill:#EBAA48;" d="M360.816,356h23.867c4.142,0,7.5-3.357,7.5-7.5s-3.358-7.5-7.5-7.5h-23.867V356z"/>
	<path style="fill:#EBAA48;" d="M360.816,328.803h23.867c4.142,0,7.5-3.359,7.5-7.5c0-4.143-3.358-7.5-7.5-7.5h-23.867V328.803z"/>
</g>
<path style="fill:#FFC610;" d="M434.505,219.492c-1.651,0-3.082-1.143-3.447-2.754c-2.849-12.605-4.441-14.199-17.046-17.047
	c-1.613-0.365-2.753-1.795-2.753-3.445c0-1.652,1.142-3.084,2.753-3.445c12.605-2.848,14.197-4.441,17.044-17.049
	c0.366-1.609,1.799-2.754,3.448-2.752c1.651-0.002,3.081,1.143,3.444,2.754c2.851,12.605,4.443,14.197,17.05,17.045
	c1.607,0.365,2.751,1.793,2.753,3.447c-0.002,1.65-1.144,3.082-2.755,3.445c-12.605,2.848-14.2,4.441-17.048,17.045
	C437.587,218.35,436.156,219.492,434.505,219.492z"/>
<g>
	<path style="fill:#FFFFFF;" d="M387.246,127c-1.651,0-3.082-1.143-3.447-2.754c-2.849-12.605-4.441-14.199-17.046-17.047
		c-1.613-0.365-2.753-1.795-2.753-3.445c0-1.652,1.142-3.084,2.753-3.445c12.605-2.848,14.197-4.441,17.044-17.049
		c0.366-1.609,1.799-2.754,3.448-2.752c1.651-0.002,3.081,1.143,3.444,2.754c2.851,12.605,4.443,14.197,17.05,17.045
		c1.608,0.365,2.752,1.793,2.754,3.447c-0.002,1.65-1.144,3.082-2.755,3.445c-12.605,2.848-14.2,4.441-17.048,17.045
		C390.329,125.857,388.897,127,387.246,127z"/>
	<path style="fill:#FFFFFF;" d="M97.752,250.492c-1.651,0-3.082-1.143-3.447-2.754c-2.849-12.605-4.441-14.199-17.046-17.047
		c-1.613-0.365-2.754-1.795-2.754-3.445c0-1.652,1.142-3.084,2.754-3.445c12.605-2.848,14.197-4.441,17.044-17.049
		c0.366-1.609,1.799-2.754,3.448-2.752c1.651-0.002,3.081,1.143,3.444,2.754c2.851,12.605,4.443,14.197,17.05,17.045
		c1.607,0.365,2.751,1.793,2.753,3.447c-0.002,1.65-1.144,3.082-2.755,3.445c-12.605,2.848-14.2,4.441-17.048,17.045
		C100.835,249.35,99.403,250.492,97.752,250.492z"/>
</g>
<path style="fill:#FFC610;" d="M115.752,96c-1.651,0-3.082-1.143-3.447-2.754c-2.849-12.605-4.441-14.199-17.046-17.047
	c-1.613-0.365-2.754-1.795-2.754-3.445c0-1.652,1.142-3.084,2.754-3.445c12.605-2.848,14.197-4.441,17.044-17.049
	c0.366-1.609,1.799-2.754,3.448-2.752c1.651-0.002,3.081,1.143,3.444,2.754c2.851,12.606,4.443,14.197,17.05,17.045
	c1.607,0.365,2.751,1.793,2.753,3.447c-0.002,1.65-1.144,3.082-2.755,3.445c-12.605,2.848-14.2,4.441-17.048,17.045
	C118.835,94.857,117.403,96,115.752,96z"/>
<path style="fill:#06064C;" d="M387.908,161.428c0,2.75-2.25,5-5,5H129.092c-2.75,0-5-2.25-5-5v-12.635c0-2.75,2.25-5,5-5h253.816
	c2.75,0,5,2.25,5,5V161.428z"/>
<path style="fill:#000011;" d="M155.184,161.428v-12.635c0-2.75,2.25-5,5-5h-31.092c-2.75,0-5,2.25-5,5v12.635c0,2.75,2.25,5,5,5
	h31.092C157.434,166.428,155.184,164.178,155.184,161.428z"/>
<g>
</g>
<g>
</g>
<g>
</g>
<g>
</g>
<g>
</g>
<g>
</g>
<g>
</g>
<g>
</g>
<g>
</g>
<g>
</g>
<g>
</g>
<g>
</g>
<g>
</g>
<g>
</g>
<g>
</g>
</svg>
